<?xml version="1.0" encoding="UTF-8"?>
<svg xmlns="http://www.w3.org/2000/svg" xmlns:xlink="http://www.w3.org/1999/xlink" viewBox="0 0 841.89 595.28">
  <defs>
    <style>
      .cls-1 {
        fill: #fff;
      }

      .cls-2 {
        fill: #ff3c6c;
      }

      .cls-3 {
        fill: url(#radial-gradient);
      }
    </style>
    <radialGradient id="radial-gradient" cx="426.08" cy="320.74" fx="426.08" fy="320.74" r="267.19" gradientUnits="userSpaceOnUse">
      <stop offset=".66" stop-color="#fff"/>
      <stop offset="1" stop-color="#ff3c6c"/>
    </radialGradient>
  </defs>
  <g id="bones">
    <g>
      <path d="M208.21,529.74c-21.04,0-39.99-11.66-49.46-30.43-5.34-10.57-7.12-22.26-5.26-33.7-10.32-5.29-18.67-13.67-24-24.25-13.76-27.26-2.77-60.62,24.48-74.38,7.72-3.9,16.34-5.96,24.93-5.96,15.44,0,29.98,6.38,40.34,17.4l57.91-29.24-80.32-14.95c-9.11,17.78-27.41,29.22-47.94,29.22-3.31,0-6.65-.31-9.93-.92-29.26-5.44-48.63-33.67-43.19-62.94,2.1-11.28,7.57-21.33,15.68-29.07-4.78-10.14-6.27-21.49-4.17-32.77,4.76-25.56,27.06-44.11,53.02-44.11,3.31,0,6.65.31,9.92.92,23.21,4.32,40.45,22.81,43.6,45.48l204.22,38.01,200.1-101.03c-4.31-23.72,7.4-48.14,29.55-59.32,7.71-3.89,16.33-5.95,24.92-5.95,21.04,0,40,11.66,49.47,30.43,5.34,10.56,7.13,22.25,5.27,33.69,10.31,5.29,18.65,13.67,23.99,24.25,13.76,27.25,2.79,60.62-24.47,74.39-7.71,3.9-16.33,5.95-24.93,5.95-14.71,0-28.8-5.9-39.08-16.1l-85.76,43.3,63.07,11.74c9.41-16.84,27.41-27.68,47.1-27.68,3.31,0,6.65.31,9.92.92,29.26,5.45,48.63,33.69,43.19,62.94-2.1,11.27-7.57,21.33-15.68,29.08,4.78,10.15,6.26,21.5,4.17,32.77-4.77,25.56-27.06,44.11-53.01,44.11-3.31,0-6.65-.31-9.93-.92-23.7-4.41-41.28-23.96-43.8-47.23l-185.9-34.6-173.23,87.47c3.52,23.32-8.17,46.59-29.87,57.53-7.71,3.89-16.33,5.95-24.92,5.96Z"/>
      <path class="cls-3" d="M665.32,251.92l-119.14,60.15,99.81,18.58c7.21-19.86,27.93-32.17,49.38-28.18,23.88,4.45,39.63,27.4,35.19,51.28-2.26,12.12-9.28,22.14-18.77,28.5,6.56,9.35,9.51,21.23,7.26,33.35-4.45,23.87-27.41,39.63-51.28,35.18-22.02-4.1-37.15-23.95-35.87-45.75l-197.16-36.69-183.22,92.51c6.51,20.8-2.77,43.86-22.89,54.01-22.37,11.3-49.66,2.32-60.95-20.05-5.73-11.35-6.24-23.98-2.42-35.14-11.25-3.55-21.11-11.45-26.84-22.81-11.29-22.37-2.31-49.66,20.06-60.95,20.64-10.42,45.46-3.6,58.05,15.09l91.56-46.23-117.37-21.84c-6.64,20.8-27.89,33.88-49.92,29.78-23.88-4.44-39.63-27.4-35.19-51.28,2.26-12.11,9.28-22.14,18.79-28.49-6.59-9.35-9.53-21.23-7.28-33.35,4.45-23.88,27.4-39.63,51.28-35.19,21.47,4,36.36,22.94,35.94,44.05l215.2,40.05,210.34-106.2c-7.56-21.23,1.7-45.26,22.33-55.68,22.37-11.29,49.66-2.31,60.95,20.06,5.74,11.35,6.25,23.97,2.44,35.13,11.24,3.55,21.09,11.46,26.82,22.81,11.3,22.37,2.32,49.66-20.05,60.96-20.1,10.15-44.18,3.93-57.05-13.66Z"/>
    </g>
  </g>
  <g id="head">
    <g>
      <path d="M411.66,441.16c-40.06,0-78.54-9.13-108.35-25.7-34.65-19.26-56.53-47.73-63.27-82.32-3.34-17.12.46-39.5,3.7-57.83-4.33-2.69-8.52-5.87-12.5-9.48-11.27-10.24-19.73-22.81-25.84-32.63-5.37-8.63-13.08-21.8-18.11-36.42-2.69-7.84-4.55-15.74-6.34-23.38-2.27-9.69-4.54-19.37-6.82-29.06l-.09-.39c-2.43-10.36-5.45-23.25-2.09-35.83l2.28-8.55,8.28,3.12c26.28,9.91,55,13.93,79.63,16.55l2.18.23c11.65,1.23,23.69,2.5,35.22,6.97,7.34,2.83,13.9,6.94,19.12,11.89,20.02-16.87,40.97-23.72,67.41-28.87,17.23-3.36,32.45-4.99,46.55-4.99,15.12,0,29.04,1.94,41.51,5.79,2.94-9.33,9.14-18.34,17.89-25.71,9.85-8.28,21.34-13.68,32.46-18.9l2.01-.94c23.54-11.07,50.64-24.9,73.26-43.6l6.67-5.51,4.98,7.08c7.73,11,9.25,24.49,10.47,35.33,1.16,10.29,2.32,20.58,3.48,30.86.91,7.99,1.84,16.27,1.92,24.78.11,12.1-1.54,25.27-5.19,41.45-2.6,11.59-6.57,26.67-14.16,40.44-3.34,6.07-7.21,11.56-11.57,16.4.69,1.14,1.4,2.32,2.13,3.52,8.22,13.53,17.53,28.86,20.11,42.1,8.07,41.39-6.31,83.12-40.47,117.51-30.11,30.31-73.19,52.73-118.21,61.5-15.53,3.03-31.77,4.56-48.24,4.56Z"/>
      <path class="cls-1" d="M613.91,58.92c1.16,10.29,2.32,20.57,3.48,30.85.9,7.97,1.8,15.94,1.87,23.96.12,13.33-2.06,26.59-5,39.62-2.97,13.23-6.79,26.41-13.36,38.34-3.85,7-8.72,13.57-14.57,19.08,8.03,13.83,21.52,33.56,24.4,48.34,16.48,84.55-67.8,153.15-152.35,169.63-84.55,16.48-193.99-12.58-210.47-97.13-3.38-17.35,1.4-41.61,4.7-60.45-5.78-3.01-11.15-6.88-15.98-11.26-9.76-8.86-17.46-19.74-24.42-30.93-6.86-11.03-13.11-22.51-17.34-34.79-2.54-7.38-4.33-15-6.12-22.6-2.3-9.82-4.61-19.64-6.91-29.45-2.46-10.5-4.93-21.52-2.15-31.95,26.07,9.83,53.89,14.07,81.6,17.02,11.96,1.28,24.13,2.36,35.36,6.71,8.36,3.22,16.23,8.58,21.35,15.79,21.37-20.47,43.25-27.23,69.61-32.37,28.37-5.53,62.84-8.58,92.65,3.62.57-11.71,7.75-22.54,16.92-30.26,9.61-8.08,21.29-13.34,32.72-18.72,26.44-12.43,52.55-26.15,74.95-44.67,6.41,9.12,7.83,20.62,9.07,31.62Z"/>
    </g>
  </g>
  <g id="eyes">
    <g>
      <path d="M311.75,314.65c-1.14,0-2.28-.1-3.38-.3-5.32-.97-9.53-4.24-11.24-8.77-1.26-3.31-1.09-7.04.47-10.5l15.16-33.68-33.69-15.15c-3.98-1.79-6.81-5.08-7.78-9.04-1.03-4.18.09-8.75,3.06-12.53,3.75-4.77,9.96-7.73,16.21-7.73,2.61,0,5.06.51,7.28,1.51l28.5,12.81,12.82-28.49c2.96-6.61,10.5-11.23,18.32-11.23,1.14,0,2.28.1,3.38.3,4.73.86,8.6,3.54,10.6,7.34,1.9,3.6,1.96,7.95.17,11.93l-15.16,33.69,33.69,15.15c3.46,1.56,6.06,4.24,7.32,7.55,1.72,4.53.75,9.77-2.6,14.02-3.75,4.77-9.96,7.73-16.21,7.73-2.61,0-5.06-.51-7.28-1.51l-28.48-12.81-12.83,28.49c-2.97,6.61-10.51,11.23-18.32,11.23Z"/>
      <path class="cls-2" d="M359.96,196.78c6.46,1.17,9.63,6.68,7.11,12.3l-17.22,38.25,38.25,17.2c2.35,1.06,3.94,2.76,4.69,4.76,1.06,2.79.51,6.15-1.85,9.16-4.05,5.15-11.89,7.29-17.5,4.75l-33.05-14.86-14.88,33.05c-2.53,5.63-9.8,9.23-16.25,8.06-3.76-.68-6.4-2.84-7.46-5.63-.76-2-.7-4.33.36-6.68l17.22-38.25-38.25-17.2c-5.61-2.53-6.9-8.76-2.84-13.92,4.05-5.15,11.87-7.28,17.5-4.75l33.06,14.86,14.87-33.05c2.52-5.63,9.8-9.23,16.25-8.06Z"/>
    </g>
    <g>
      <path d="M531.88,275.79c-5.52,0-10.65-2.06-14.07-5.65l-21.59-22.57-22.59,21.59c-3.34,3.2-8.2,5.03-13.34,5.03-3.96,0-7.72-1.05-10.87-3.05-4.07-2.58-6.64-6.51-7.07-10.79-.4-4.05,1.17-8.1,4.32-11.12l26.7-25.53-25.54-26.69c-2.63-2.74-4.03-6.2-3.95-9.74.11-4.84,2.98-9.33,7.67-12.02,2.96-1.69,6.43-2.59,10.03-2.59,5.51,0,10.64,2.06,14.07,5.64l21.61,22.57,22.58-21.59c3.33-3.19,8.19-5.03,13.34-5.03,3.96,0,7.72,1.05,10.88,3.05,4.57,2.9,7.24,7.51,7.13,12.35-.08,3.54-1.63,6.93-4.38,9.56l-26.7,25.53,25.54,26.69c3.01,3.15,4.41,7.27,3.82,11.3-.62,4.26-3.37,8.07-7.54,10.46-2.96,1.69-6.43,2.59-10.04,2.59h0Z"/>
      <path class="cls-2" d="M539.44,268.87c5.7-3.26,6.85-9.52,2.59-13.97l-29-30.3,30.32-28.98c1.86-1.78,2.79-3.92,2.84-6.05.07-2.98-1.57-5.97-4.8-8.02-5.53-3.5-13.64-2.9-18.08,1.37l-26.19,25.04-25.06-26.19c-4.27-4.46-12.32-5.42-18.01-2.17-3.32,1.9-5.09,4.81-5.16,7.79-.05,2.14.78,4.31,2.56,6.17l29,30.3-30.32,28.98c-4.45,4.26-3.58,10.56,1.97,14.07,5.53,3.5,13.62,2.9,18.08-1.37l26.2-25.04,25.05,26.19c4.25,4.46,12.32,5.42,18.01,2.17Z"/>
    </g>
  </g>
  <g id="nose">
    <path d="M403.39,373.09c-20.09,0-34.85-10.26-37.61-26.13-2.4-13.79,2.81-29.81,14.3-43.94,11.5-14.14,27.38-23.86,43.57-26.68,3.7-.65,7.54-.97,11.42-.97,31.74,0,62.24,21.13,66.6,46.14.08.48.15.95.21,1.41.11.72.19,1.58.24,2.62v.13s0,.13,0,.13c.03.71.03,1.44,0,2.21-.37,11.45-7.29,21.21-19.47,27.48l-5.87,3.02-1.32-6.46c-.28-1.35-.54-2.76-.82-4.2l-.08-.43c-.48-2.54-1.08-5.69-1.81-8.65-.14-.6-.28-1.16-.42-1.71-.03-.11-.07-.23-.1-.37l-.1-.35c-.07-.26-.15-.53-.23-.79l-.03-.1c-.1-.35-.21-.7-.32-1.05l-.17-.54c-.12-.38-.25-.76-.39-1.14-.33-.95-.68-1.84-1.03-2.66-.08-.18-.15-.35-.22-.52l-.34-.71c-1.83-3.83-4.07-6.52-6.84-8.21-.06.1-.12.24-.14.41-.26,2.6-.22,5.27.11,8.16.13,1.12.28,2.12.45,3.04l.03.17c.08.43.15.87.25,1.3.1.48.19.87.28,1.27.04.18.07.31.1.43l.07.21.04.21.28,1.13c.16.6.34,1.24.52,1.89.12.42.24.8.36,1.17.88,2.82,1.94,5.71,3.24,8.85.73,1.78,1.5,3.5,2.21,5.09l2.58,5.73-6.16,1.23c-4.79.95-9.83,1.43-14.96,1.43-1.52,0-3.06-.04-4.58-.13l-4.15-.23-.53-4.12c-.13-1.02-.25-2.05-.37-3.08-.14-1.03-.27-2.13-.4-3.23l-.02-.15c-.12-.99-.25-2.01-.39-3.03l-.03-.22c-.09-.66-.18-1.31-.28-1.97-.1-.68-.2-1.32-.31-1.96l-.07-.42v-.04c-.09-.51-.18-1.03-.28-1.54l-.02-.1c-.1-.54-.2-1.07-.32-1.6-.17-.78-.35-1.55-.54-2.31-.07-.28-.15-.56-.23-.83l-.18-.63c-.06-.21-.25-.85-.25-.85-.18-.55-.36-1.12-.57-1.69-2.05-5.68-4.75-9.21-7.04-9.21-.36,0-.77.07-1.2.22-2.48.82-2.04,5.79-1.43,9.16l.15.76c.46,2.27,1.07,4.41,1.67,6.39,1.42,4.71,3.35,11.16,6.4,15.64l2.97,4.37-4.53,2.72c-4.04,2.43-8.36,4.4-12.85,5.84l-4.74,1.53-1.55-4.74c-1.22-3.73-2.06-7.51-2.88-11.17-.76-3.39-1.47-6.59-2.45-9.71,0,0-.27-.83-.34-1.07-.14-.43-.31-.93-.5-1.45l-.08-.22c-.03-.09-.06-.17-.09-.26l-.05-.14c-.14-.37-.28-.75-.43-1.14-.1-.24-.2-.5-.31-.75l-.09-.22c-.08-.2-.17-.4-.25-.6-2.17-4.88-4.24-6.6-5.35-6.6-.07,0-.13,0-.2.01-1.42.17-1.72,4.1-1.54,7.42.02.59.06,1.07.09,1.51.68,8.72,3.6,16.9,6.36,23.75l2.77,6.87h-7.44Z"/>
    <path class="cls-2" d="M497.14,327.85c-.33,10.21-6.94,18.14-16.76,23.19-.3-1.47-.59-3-.89-4.57-.55-2.89-1.13-5.91-1.86-8.9-.15-.64-.31-1.29-.48-1.93-.02-.06-.04-.12-.05-.18-.13-.46-.25-.92-.39-1.38-.16-.57-.34-1.13-.51-1.69-.14-.46-.3-.92-.46-1.37-.35-1-.73-1.99-1.14-2.95-.2-.48-.41-.95-.64-1.42h-.01c-2.06-4.32-4.88-8.03-8.95-10.44-3.51-2.08-7.17.67-7.52,4.32-.3,3.06-.23,6.13.12,9.2.13,1.13.29,2.26.5,3.39.1.56.2,1.13.33,1.69.09.42.18.84.28,1.27.05.23.1.46.16.69.01.03.01.06.02.09.11.44.22.88.33,1.31.18.68.37,1.35.56,2.02.12.44.26.88.4,1.32.98,3.14,2.14,6.24,3.39,9.25.73,1.77,1.5,3.51,2.27,5.22-5.78,1.15-11.99,1.57-18.29,1.22-.13-1.01-.25-2.03-.37-3.05-.15-1.11-.28-2.23-.41-3.35-.13-1.05-.26-2.1-.41-3.15-.1-.74-.2-1.48-.31-2.22-.1-.7-.21-1.39-.33-2.08,0-.05,0-.1-.02-.14-.11-.68-.23-1.36-.37-2.03-.11-.59-.22-1.17-.35-1.76-.18-.83-.37-1.66-.58-2.48-.08-.32-.18-.67-.28-1.02-.05-.18-.1-.36-.15-.54-.08-.28-.17-.58-.26-.88-.21-.65-.43-1.34-.68-2.03-2.39-6.63-6.98-14.52-14.51-12.04-6.08,2.01-5.88,9.38-4.62,15.65h0c.53,2.63,1.25,5.08,1.78,6.84,1.49,4.96,3.57,11.89,7.05,17.01-3.74,2.25-7.72,4.05-11.81,5.37-2.22-6.81-3.16-13.99-5.31-20.83-.1-.32-.22-.67-.33-1.03-.17-.54-.37-1.11-.59-1.71-.07-.2-.14-.41-.22-.61-.15-.41-.31-.83-.48-1.26-.12-.3-.24-.6-.37-.9-.11-.29-.24-.59-.37-.88-2.23-5.01-5.68-10.09-10.69-9.51-5.83.68-6.22,7.73-5.96,12.65.02.58.06,1.13.1,1.64.69,8.83,3.43,17.1,6.71,25.23-16.04.01-30.16-7.27-32.72-21.99-4.46-25.59,21.87-59.28,53.8-64.84,31.92-5.56,67.78,15.51,72.24,41.1.07.4.13.8.18,1.19.11.76.17,1.52.21,2.26v.1c.03.66.03,1.3.01,1.94Z"/>
    <path class="cls-2" d="M396.71,342.86c-.04-.51-.08-1.06-.1-1.64.03.58.06,1.13.1,1.64Z"/>
    <path class="cls-2" d="M473.96,326.65c.23.47.44.94.64,1.42-.21-.48-.43-.95-.65-1.42h.01Z"/>
    <path class="cls-2" d="M413.63,338.96c-.12-.3-.25-.59-.38-.88h.01c.13.29.26.59.37.88Z"/>
    <path class="cls-2" d="M458.1,333.12c-.21-1.13-.37-2.26-.5-3.39h.01c.13,1.13.29,2.26.49,3.39Z"/>
  </g>
</svg>